<?xml version="1.0" encoding="utf-8"?>
<!-- Generator: Adobe Illustrator 26.1.0, SVG Export Plug-In . SVG Version: 6.00 Build 0)  -->
<svg version="1.1" xmlns="http://www.w3.org/2000/svg" xmlns:xlink="http://www.w3.org/1999/xlink" x="0px" y="0px"
	 viewBox="0 0 1024 1024" style="enable-background:new 0 0 1024 1024;" xml:space="preserve">
<style type="text/css">
	.st0{fill:#FFFFFF;}
</style>
<g id="BG_x5F_Black">
</g>
<g id="Guides">
</g>
<g id="Myreze_x5F_Logo_x5F_White">
	<path id="M__x3C_Path_x3E_" class="st0" d="M989.01,478.72L769.07,223.08c-9.26-10.58-22.48-16.31-36.14-16.31h-116.8
		c-10.14,0-18.95,6.17-22.48,15.87l-72.73,189.97c-1.32,4.41-5.29,6.61-8.82,6.61c-3.53,0-7.49-2.2-9.26-6.61l-72.28-189.97
		c-3.53-9.7-12.34-15.87-22.48-15.87H290.84c-14.1,0-26.89,5.73-36.14,16.31L35.2,478.28c-15.43,17.63-18.07,48.48,7.49,67
		L323.9,750.23c3.97,3.09,10.58,2.2,13.22-2.2c14.1-21.6,8.82-42.31-1.32-55.1c0-0.44-121.21-163.96-121.21-163.96
		c-8.82-10.58-8.82-26.45,0.44-37.02l66.11-74.49c9.7-11.46,26.45-7.49,30.85,5.29l149.86,379.49c3.09,9.26,11.9,14.99,21.6,14.99
		h29.09l29.97-0.44c9.7,0,18.07-6.17,21.6-14.99l149.86-379.05c4.85-13.22,21.6-16.31,30.85-5.29l65.67,74.05
		c9.26,10.58,9.26,26.45,0.44,37.02L689.73,692.49c-10.14,12.78-15.87,33.5-1.76,55.54c3.09,4.41,9.26,5.29,13.22,2.2L982.4,545.28
		C997.82,533.38,1010.61,505.17,989.01,478.72z"/>
</g>
</svg>
