<?xml version="1.0" encoding="UTF-8" standalone="no"?>
<svg
   width="100%"
   height="100%"
   viewBox="0 0 16 16"
   version="1.1"
   xml:space="preserve"
   style="fill-rule:evenodd;clip-rule:evenodd;stroke-linecap:round;stroke-linejoin:round;stroke-miterlimit:22;"
   id="svg6"
   sodipodi:docname="primtype_openvdbasset.svg"
   inkscape:version="1.4 (e7c3feb1, 2024-10-09)"
   xmlns:inkscape="http://www.inkscape.org/namespaces/inkscape"
   xmlns:sodipodi="http://sodipodi.sourceforge.net/DTD/sodipodi-0.dtd"
   xmlns="http://www.w3.org/2000/svg"
   xmlns:svg="http://www.w3.org/2000/svg"><defs
   id="defs6">
        
        
    
            
            
            
            
            
            
        
            
            
            
            
            
        </defs><sodipodi:namedview
   id="namedview6"
   pagecolor="#ffffff"
   bordercolor="#000000"
   borderopacity="0.25"
   inkscape:showpageshadow="2"
   inkscape:pageopacity="0.0"
   inkscape:pagecheckerboard="0"
   inkscape:deskcolor="#d1d1d1"
   inkscape:zoom="63.0625"
   inkscape:cx="8"
   inkscape:cy="8"
   inkscape:window-width="2216"
   inkscape:window-height="1219"
   inkscape:window-x="0"
   inkscape:window-y="25"
   inkscape:window-maximized="0"
   inkscape:current-layer="svg6" />
    <path
   d="M 1.047,4.887 V 2.472 c 0,-0.418 0.166,-0.818 0.461,-1.113 0.295,-0.295 0.695,-0.461 1.113,-0.461 1.124,0 2.437,0 2.437,0"
   style="fill:none;stroke:#c6dce2;stroke-width:0.95px"
   id="path1" /><path
   d="m 11.065,0.898 h 2.408 c 0.417,0 0.818,0.166 1.113,0.461 0.295,0.295 0.461,0.695 0.461,1.113 0,1.123 0,2.436 0,2.436"
   style="fill:none;stroke:#c6dce2;stroke-width:0.95px"
   id="path2" /><path
   d="m 15.047,10.878 v 2.446 c 0,0.869 -0.705,1.574 -1.574,1.574 -1.138,0 -2.475,0 -2.475,0"
   style="fill:none;stroke:#c6dce2;stroke-width:0.95px"
   id="path3" /><path
   d="m 5.021,14.898 h -2.4 C 2.203,14.898 1.803,14.732 1.508,14.437 1.213,14.142 1.047,13.741 1.047,13.324 v -2.398"
   style="fill:none;stroke:#c6dce2;stroke-width:0.95px"
   id="path4" /><path
   id="path236474"
   d="M 4.3926614,4.3830005 C 3.7189238,4.3529351 2.7322329,4.5182946 1.8521375,5.4516878 c -0.00547,0.00547 -1.04818817,0.9989903 -0.95115902,2.5309576 0,0 0,0 0,0 0.0464647,1.926917 1.63036312,3.4561516 3.54498062,3.4274526 0.4154488,0.01503 0.8732624,-0.03826 1.3720742,-0.188592 v 0 c 0.00137,-0.0014 1.0181229,-0.270588 2.0239462,-1.3515752 v -0.00137 h 0.00137 c 0,0 0.3211528,-0.3771838 0.6081405,-0.7584673 v -0.00137 C 8.495221,9.0513255 8.53622,8.9939285 8.5772179,8.9378976 8.6236829,8.8818666 8.6701469,8.8244691 8.7179785,8.7643384 v 0 l 0.00137,-0.00137 C 8.8956341,8.5279219 9.2605184,8.022277 9.711499,7.5330315 10.161113,7.0424193 10.69819,6.5723062 11.195635,6.4069466 v 0 l 0.0014,-0.00137 c 0.206357,-0.075163 0.430481,-0.1161616 0.662804,-0.1161616 1.067321,0 1.931017,0.8623295 1.931017,1.9282836 0,0.9648251 -0.712002,1.8613204 -1.631729,2.0034474 v 0 h -0.0014 c -0.110695,0.01913 -1.997981,0.333452 -3.1828296,-1.3092107 -0.010933,-0.013666 -0.019132,-0.027332 -0.027332,-0.036898 l -0.00957,-0.015033 -0.016399,-0.0082 c 0,0 -0.017766,-0.00683 -0.017766,-0.00683 0,0 -0.035532,0 -0.035532,0 0,0 -0.038265,0.025966 -0.038265,0.025966 0,0 -0.015033,0.027332 -0.015033,0.027332 0,0 -0.00137,0.016399 -0.00137,0.017766 0,0 0,0.00683 0,0.0082 0,0.00547 0.00137,0.0082 0.00137,0.00957 0.00273,0.00957 0.00273,0.00957 0.0041,0.0123 0.00137,0.0041 0.00273,0.00683 0.0041,0.00957 0.00273,0.0082 0.00683,0.017766 0.00957,0.030065 l 0.00137,0.00137 v 0 c 0.15306,0.4728463 0.609507,1.8203217 2.0608446,2.2863347 v 0 c 0,0 0,0 0,0 0.0014,0.0014 0.375817,0.124361 0.919727,0.121628 0.668272,-0.0055 1.605765,-0.200891 2.450328,-1.038622 l 0.0014,-0.0014 c 0,0 0,0 0,0 0.0779,-0.08473 0.113428,-0.135295 0.174926,-0.210458 0.103862,-0.135294 0.237789,-0.3334522 0.36625,-0.5849081 0.25419,-0.501545 0.47968,-1.2176475 0.358052,-2.0622111 l -0.0014,-0.012299 -0.0027,-0.0041 C 14.962006,5.8903689 13.685594,4.6276233 12.078464,4.4280985 c 0,0 -0.0014,0 -0.0014,0 -0.516578,-0.07653 -1.113785,-0.051931 -1.783423,0.1516935 h -0.0014 v 0 c 0,0 -1.1178849,0.3457518 -2.0184794,1.3570415 l -0.0041,0.00273 C 7.5317595,6.8975588 6.7527931,8.1056401 5.8781641,8.8750403 l -0.00273,0.00137 -0.00137,0.00273 C 5.5050802,9.2563239 4.9844026,9.4913804 4.4049609,9.4913804 c -0.2254903,0 -0.4427809,-0.035532 -0.6464055,-0.1024956 h -0.00137 l -0.00137,-0.00137 C 3.3813716,9.2822894 2.9768557,9.0581658 2.6994343,8.5839529 l -0.00137,-0.00137 -0.00137,-0.00137 C 2.4971764,8.2791993 2.3823813,7.9197815 2.3823813,7.5343981 c 0,-1.0796202 0.9019612,-1.9419497 2.0198464,-1.9556158 0.7051696,-0.00683 1.7752235,0.1667262 2.6225203,1.3406423 0.00547,0.0082 0.0123,0.019132 0.020499,0.028699 l 0.00683,0.021866 0.027332,0.013666 c 0.00273,0.00137 0.012299,0.0041 0.012299,0.0041 0,0 0.0123,0.00273 0.0123,0.00273 0,0 0.020499,0 0.020499,0 0,0 0.025965,-0.00957 0.025965,-0.00957 0,0 0.023232,-0.021866 0.023232,-0.021866 0,0 0.00957,-0.024599 0.00957,-0.024599 0,0 0.00273,-0.016399 0.00273,-0.016399 0,0 -0.00273,-0.019132 -0.00273,-0.019132 0,0 -0.00137,-0.00683 -0.00273,-0.00957 -0.00137,-0.0041 -0.00273,-0.00547 -0.00273,-0.00683 -0.00137,-0.00137 -0.00137,-0.00137 -0.00137,-0.00137 C 7.0589132,6.5490738 6.5915334,5.0594713 5.2249256,4.5346939 c 0,0 -0.334819,-0.1284611 -0.8322642,-0.1516934 z"
   style="fill:#f80909;fill-rule:nonzero;stroke:none;stroke-width:0.400001px;stroke-linejoin:miter;stroke-miterlimit:4" />
</svg>
