<?xml version="1.0" encoding="UTF-8" standalone="no"?>
<svg
   width="100%"
   height="100%"
   viewBox="0 0 16 16"
   version="1.1"
   xml:space="preserve"
   style="fill-rule:evenodd;clip-rule:evenodd;stroke-linecap:round;stroke-linejoin:round;stroke-miterlimit:1.5;"
   id="svg23"
   sodipodi:docname="primtype_camera.svg"
   inkscape:version="1.4 (e7c3feb, 2024-10-09)"
   xmlns:inkscape="http://www.inkscape.org/namespaces/inkscape"
   xmlns:sodipodi="http://sodipodi.sourceforge.net/DTD/sodipodi-0.dtd"
   xmlns="http://www.w3.org/2000/svg"
   xmlns:svg="http://www.w3.org/2000/svg"><defs
   id="defs23" /><sodipodi:namedview
   id="namedview23"
   pagecolor="#ffffff"
   bordercolor="#000000"
   borderopacity="0.25"
   inkscape:showpageshadow="2"
   inkscape:pageopacity="0.0"
   inkscape:pagecheckerboard="0"
   inkscape:deskcolor="#d1d1d1"
   inkscape:zoom="72.375"
   inkscape:cx="8.0829016"
   inkscape:cy="7.9861831"
   inkscape:window-width="2560"
   inkscape:window-height="1367"
   inkscape:window-x="0"
   inkscape:window-y="42"
   inkscape:window-maximized="1"
   inkscape:current-layer="svg23" />
    <g
   id="primtype_camera"
   transform="matrix(0.99313158,0,0,0.99313158,1.9757142e-4,0.05824077)">
        <path
   d="M 15.191,11.65 15.722,6.409 10.939,5.554 9.658,7.863 9.643,10.149 Z"
   style="fill:#80898f"
   id="path1" />
        <path
   d="M 15.086,12.036 9.538,10.535 C 9.363,10.487 9.242,10.328 9.243,10.146 L 9.258,7.86 C 9.259,7.793 9.276,7.727 9.308,7.669 L 10.59,5.36 c 0.083,-0.149 0.251,-0.229 0.42,-0.199 l 4.782,0.854 c 0.206,0.037 0.349,0.226 0.328,0.434 l -0.531,5.241 c -0.012,0.117 -0.075,0.223 -0.171,0.289 -0.097,0.067 -0.218,0.088 -0.332,0.057 z M 15.191,11.65 15.722,6.409 10.939,5.554 9.658,7.863 9.643,10.149 Z"
   style="fill:#0f212c"
   id="path2" />
        <path
   d="M 9.988,8.754 11.589,8.966 15.722,6.409 10.939,5.554 9.182,8.602 Z"
   style="fill:#49565f"
   id="path3" />
        <path
   d="M 15.722,6.409 11.258,9.171"
   style="fill:none;stroke:#0f212c;stroke-width:0.35px"
   id="path4" />
        <path
   d="M 11.269,8.653 8.538,7.908 4.369,8.567 7.101,9.89 Z"
   style="fill:#0f212c"
   id="path5" />
        <path
   d="M 11.355,8.94 7.187,10.178 C 7.115,10.199 7.038,10.193 6.971,10.16 L 4.238,8.837 C 4.12,8.779 4.053,8.652 4.072,8.523 4.091,8.393 4.192,8.291 4.322,8.27 L 8.491,7.612 C 8.533,7.606 8.576,7.608 8.617,7.619 l 2.731,0.744 c 0.13,0.036 0.22,0.152 0.221,0.286 0.002,0.134 -0.086,0.253 -0.214,0.291 z M 11.269,8.653 8.538,7.908 4.369,8.567 7.101,9.89 Z"
   style="fill:#0f212c"
   id="path6" />
        <path
   d="M 7.978,13.536 6.816,9.675 4.369,8.567 v 4.088 c 0,0 1.299,0.595 2.057,0.942 0.343,0.157 0.732,0.184 1.094,0.076 0.236,-0.071 0.458,-0.137 0.458,-0.137 z"
   style="fill:#0f212c"
   id="path7" />
        <path
   d="M 7.978,13.536 7.52,13.673 C 7.158,13.781 6.769,13.754 6.426,13.597 L 4.369,12.655 V 8.567 L 6.816,9.675 Z M 7.479,13.267 6.486,9.964 c 0,0 -1.717,-0.777 -1.717,-0.777 0,0 0,3.212 0,3.212 l 1.823,0.834 c 0.255,0.117 0.544,0.137 0.813,0.056 z"
   style="fill:#0f212c"
   id="path8" />
        <path
   d="m 10.817,12.663 c 0.458,-0.14 0.77,-0.563 0.77,-1.041 0,-0.806 0,-2.014 0,-2.643 0,-0.1 -0.046,-0.194 -0.124,-0.256 C 11.384,8.66 11.282,8.637 11.184,8.66 10.229,8.882 7.846,9.435 7.067,9.616 6.92,9.651 6.815,9.781 6.813,9.932 c -0.007,0.66 -0.027,2.427 -0.037,3.367 -0.002,0.142 0.065,0.276 0.178,0.361 0.114,0.085 0.261,0.11 0.397,0.068 0.867,-0.266 2.501,-0.768 3.466,-1.065 z"
   style="fill:#5a666e"
   id="path9" />
        <path
   d="M 10.935,13.046 7.468,14.111 C 7.211,14.19 6.931,14.141 6.715,13.98 6.499,13.819 6.373,13.564 6.376,13.294 L 6.413,9.928 6.425,9.805 6.457,9.687 6.574,9.48 6.751,9.321 6.859,9.265 6.977,9.227 11.094,8.27 l 0.163,-0.018 0.162,0.017 0.153,0.053 0.139,0.087 0.117,0.117 0.086,0.137 0.054,0.153 0.019,0.163 v 2.643 c 0,0.654 -0.427,1.231 -1.052,1.424 z m -0.118,-0.383 c 0.458,-0.14 0.77,-0.563 0.77,-1.041 V 8.979 c 0,-0.1 -0.046,-0.194 -0.124,-0.256 C 11.384,8.66 11.282,8.637 11.184,8.66 L 7.067,9.616 C 6.92,9.651 6.815,9.781 6.813,9.932 l -0.037,3.367 c -0.002,0.142 0.065,0.276 0.178,0.361 0.114,0.085 0.261,0.11 0.397,0.068 z"
   style="fill:#0f212c"
   id="path10" />
        <path
   d="m 10.081,11.598 0.006,-1.471 -1.519,0.255 0.025,1.617 z"
   style="fill:#0f212c"
   id="path11" />
        <path
   d="M 6.84,2.509 C 5.434,2.287 4.072,3.501 3.8,5.218 3.529,6.936 4.449,8.511 5.855,8.733 7.261,8.955 8.623,7.741 8.895,6.024 9.166,4.307 8.245,2.732 6.84,2.509 Z"
   style="fill:#49565f"
   id="path12" />
        <path
   d="M 6.902,2.114 C 8.502,2.367 9.599,4.131 9.29,6.086 8.98,8.042 7.393,9.381 5.793,9.128 4.193,8.875 3.096,7.111 3.405,5.156 3.714,3.201 5.302,1.861 6.902,2.114 Z M 6.84,2.509 C 5.434,2.287 4.072,3.501 3.8,5.218 3.529,6.936 4.449,8.511 5.855,8.733 7.261,8.955 8.623,7.741 8.895,6.024 9.166,4.307 8.245,2.732 6.84,2.509 Z"
   style="fill:#0f212c"
   id="path13" />
        <path
   d="M 3.515,7.949 C 2.109,7.726 0.747,8.94 0.476,10.658 0.204,12.375 1.125,13.95 2.531,14.172 3.937,14.395 5.299,13.181 5.57,11.463 5.842,9.746 4.921,8.171 3.515,7.949 Z"
   style="fill:#49565f"
   id="path14" />
        <path
   d="m 3.578,7.554 c 1.6,0.253 2.696,2.017 2.387,3.972 C 5.656,13.481 4.069,14.82 2.468,14.567 0.868,14.314 -0.228,12.55 0.081,10.595 0.39,8.64 1.977,7.301 3.578,7.554 Z M 3.515,7.949 C 2.109,7.726 0.747,8.94 0.476,10.658 0.204,12.375 1.125,13.95 2.531,14.172 3.937,14.395 5.299,13.181 5.57,11.463 5.842,9.746 4.921,8.171 3.515,7.949 Z"
   style="fill:#0f212c"
   id="path15" />
        <path
   d="M 4.412,8.226 C 3.006,8.004 1.645,9.218 1.373,10.935 1.101,12.653 2.022,14.227 3.428,14.45 4.834,14.672 6.196,13.458 6.467,11.741 6.739,10.023 5.818,8.448 4.412,8.226 Z"
   style="fill:#80898f"
   id="path16" />
        <path
   d="m 4.475,7.831 c 1.6,0.253 2.696,2.017 2.387,3.972 C 6.553,13.758 4.966,15.098 3.365,14.845 1.765,14.592 0.669,12.828 0.978,10.873 1.287,8.918 2.874,7.578 4.475,7.831 Z M 4.412,8.226 C 3.006,8.004 1.645,9.218 1.373,10.935 1.101,12.653 2.022,14.227 3.428,14.45 4.834,14.672 6.196,13.458 6.467,11.741 6.739,10.023 5.818,8.448 4.412,8.226 Z"
   style="fill:#0f212c"
   id="path17" />
        <path
   d="M 4.287,9.95 C 3.67,9.852 3.072,10.385 2.953,11.138 2.834,11.892 3.238,12.582 3.855,12.68 4.472,12.778 5.069,12.245 5.188,11.492 5.307,10.738 4.903,10.047 4.287,9.95 Z"
   style="fill:#49565f"
   id="path18" />
        <path
   d="m 4.287,9.95 c 0.616,0.097 1.02,0.788 0.901,1.542 C 5.069,12.245 4.472,12.778 3.855,12.68 3.238,12.582 2.834,11.892 2.953,11.138 3.072,10.385 3.67,9.852 4.287,9.95 Z M 4.24,10.246 C 3.769,10.171 3.341,10.609 3.25,11.185 3.158,11.761 3.43,12.309 3.902,12.384 4.373,12.458 4.801,12.02 4.892,11.445 4.983,10.869 4.711,10.32 4.24,10.246 Z"
   style="fill:#0f212c"
   id="path19" />
        <path
   d="M 7.741,2.674 C 6.335,2.452 4.973,3.666 4.702,5.383 4.43,7.1 5.351,8.675 6.757,8.898 8.163,9.12 9.524,7.906 9.796,6.189 10.068,4.471 9.147,2.896 7.741,2.674 Z"
   style="fill:#80898f"
   id="path20" />
        <path
   d="M 7.804,2.279 C 9.404,2.532 10.5,4.296 10.191,6.251 9.882,8.206 8.295,9.546 6.694,9.293 5.094,9.04 3.998,7.276 4.307,5.321 4.616,3.366 6.203,2.026 7.804,2.279 Z M 7.741,2.674 C 6.335,2.452 4.973,3.666 4.702,5.383 4.43,7.1 5.351,8.675 6.757,8.898 8.163,9.12 9.524,7.906 9.796,6.189 10.068,4.471 9.147,2.896 7.741,2.674 Z"
   style="fill:#0f212c"
   id="path21" />
        <path
   d="M 7.613,4.499 C 6.997,4.402 6.399,4.934 6.28,5.688 6.161,6.441 6.565,7.132 7.182,7.23 7.798,7.327 8.396,6.795 8.515,6.041 8.634,5.288 8.23,4.597 7.613,4.499 Z"
   style="fill:#49565f"
   id="path22" />
        <path
   d="M 7.613,4.499 C 8.23,4.597 8.634,5.288 8.515,6.041 8.396,6.795 7.798,7.327 7.182,7.23 6.565,7.132 6.161,6.441 6.28,5.688 6.399,4.934 6.997,4.402 7.613,4.499 Z M 7.567,4.796 C 7.095,4.721 6.667,5.159 6.576,5.735 6.485,6.31 6.757,6.859 7.229,6.934 7.7,7.008 8.128,6.57 8.219,5.995 8.31,5.419 8.038,4.87 7.567,4.796 Z"
   style="fill:#0f212c"
   id="path23" />
    </g>
</svg>
